# xmcd
#
# Track frame offsets:
#	150
#	16219
#	26963
#	41484
#	56411
#	72461
#	88929
#	101961
#	119630
#	131898
#	147265
#
# Disc length: 2115 seconds
#
# Revision: 0
# Processed by: cddbd v1.5.2PL0 Copyright (c) Steve Scherf et al.
# Submitted via: EasyCDDAExtractor 11.1.0.1
#
DISCID=a908410b
DTITLE=The TopCats - Dusty Road
DYEAR=1900
DGENRE=country
TTITLE0=Dusty road
TTITLE1=Dim lights thick smoke
TTITLE2=I get the blues when it rains
TTITLE3=Mind your own business
TTITLE4=Fighting the depression
TTITLE5=Can't be ssatisfied
TTITLE6=Truck driving man
TTITLE7=Strange world
TTITLE8=Hey porter
TTITLE9=Rooster blues
TTITLE10=Big river
EXTD=
EXTT0=
EXTT1=
EXTT2=
EXTT3=
EXTT4=
EXTT5=
EXTT6=
EXTT7=
EXTT8=
EXTT9=
EXTT10=
PLAYORDER=
